<svg width="139" height="20" viewBox="0 0 13910 2000" xmlns="http://www.w3.org/2000/svg"><defs><path id="s" d="M9964 1389m584-176l-114 0l0 176l-95 0l0-176l-363 0l0-85l356-528l101 0l0 524l114 0l0 89Zm-209-89l0-191q0-30 1-63q1-33 2-64q1-31 2-59q1-27 2-46l-5 0q-4 11-9 24q-6 13-12 26q-7 13-14 26q-7 12-13 21l-221 327l267 0ZM10613 1389m79-60q0-20 5-35q5-14 15-23q9-9 21-13q12-4 27-4q14 0 27 4q13 4 22 13q9 9 15 23q5 14 5 35q0 20-5 34q-5 14-15 23q-9 9-22 13q-13 4-27 4q-15 0-27-4q-12-4-21-13q-9-9-15-23q-5-14-5-34ZM10951 1389m541 0l-490 0l0-84l188-205q40-44 72-79q32-36 54-70q22-34 34-69q12-35 12-75q0-32-9-56q-9-24-26-41q-17-17-40-26q-23-9-52-9q-51 0-92 21q-41 21-78 53l-55-64q21-19 46-36q25-17 53-29q28-12 60-20q32-7 67-7q52 0 93 15q42 15 71 42q29 27 45 66q16 39 16 88q0 46-14 87q-14 41-39 81q-25 40-60 80q-35 40-75 84l-151 161l0 4l370 0l0 89ZM11928 1389m681 0l-117 0l-279-375l-80 70l0 305l-99 0l0-785l99 0l0 387l68-75l280-313l115 0l-311 342l323 443ZM12652 1389m107-785l224 0q158 0 228 47q70 47 70 147q0 70-38 115q-38 45-111 59l0 5q91 16 133 63q43 47 43 125q0 105-72 164q-72 59-201 59l-276 0l0-785Zm99 334l145 0q92 0 134-30q42-30 42-99q0-64-46-93q-46-28-145-28l-130 0l0 250Zm0 83l0 285l158 0q95 0 140-37q46-37 46-111q0-70-48-104q-48-34-145-34l-151 0Z"/><path id="l" d="M543 1389m844 0l0-380q0-140-120-140q-82 0-121 48q-39 48-39 146l0 325l-96 0l0-380q0-70-29-105q-29-35-92-35q-82 0-120 50q-38 50-38 164l0 306l-97 0l0-590l78 0l15 81l5 0q25-43 71-67q46-24 103-24q139 0 180 99l5 0q28-47 78-73q49-26 111-26q100 0 150 52q50 52 50 165l0 384l-96 0ZM1615 1389m190 0l-97 0l0-590l97 0l0 590Zm-104-749q0-32 16-47q16-15 41-15q23 0 39 15q17 15 17 47q0 32-17 47q-17 15-39 15q-24 0-41-15q-16-15-16-47ZM1941 1389m495 0l0-377q0-72-32-107q-32-35-100-35q-91 0-132 50q-41 50-41 164l0 306l-97 0l0-590l78 0l15 81l5 0q27-44 77-67q49-24 109-24q108 0 161 53q53 53 53 164l0 384l-96 0ZM2664 1389m474 0l-431 0l0-64l317-451l-298 0l0-75l404 0l0 73l-312 443l320 0l0 75ZM3224 1389m190 0l-97 0l0-590l97 0l0 590Zm-104-749q0-32 16-47q16-15 41-15q23 0 39 15q17 15 17 47q0 32-17 47q-17 15-39 15q-24 0-41-15q-16-15-16-47ZM3551 1389m373 11q-119 0-183-85l-6 0l2 22q4 42 4 75l0 242l-97 0l0-854l79 0l13 81l4 0q34-48 79-70q45-21 104-21q115 0 179 80q64 80 64 225q0 144-64 226q-64 81-179 81Zm-16-530q-88 0-126 49q-39 49-40 155l0 19q0 120 40 173q40 53 129 53q74 0 116-60q42-60 42-168q0-108-42-165q-42-57-118-57ZM4271 1389m373 11q-119 0-183-85l-6 0l2 22q4 42 4 75l0 242l-97 0l0-854l79 0l13 81l4 0q34-48 79-70q45-21 104-21q115 0 179 80q64 80 64 225q0 144-64 226q-64 81-179 81Zm-16-530q-88 0-126 49q-39 49-40 155l0 19q0 120 40 173q40 53 129 53q74 0 116-60q42-60 42-168q0-108-42-165q-42-57-118-57ZM4990 1389m344 11q-133 0-208-80q-75-80-75-221q0-142 70-226q70-84 190-84q111 0 177 72q66 72 66 194l0 59l-404 0q3 100 51 153q48 52 137 52q47 0 90-8q42-8 99-32l0 85q-49 21-92 30q-43 9-102 9Zm-24-532q-69 0-110 45q-40 45-48 124l300 0q-1-83-38-126q-37-43-105-43ZM5654 1389m302 11q-115 0-178-79q-63-79-63-225q0-144 64-226q64-81 179-81q119 0 183 87l7 0q-2-11-4-43q-3-32-3-44l0-235l97 0l0 836l-78 0l-15-79l-4 0q-62 90-184 90Zm16-80q88 0 129-48q41-48 41-158l0-18q0-123-41-175q-41-52-129-52q-75 0-115 59q-41 59-41 169q0 110 41 166q41 56 117 56ZM6702 1389m477-163q0 83-62 128q-62 45-173 45q-117 0-185-37l0-88q97 47 187 47q73 0 106-24q33-24 33-63q0-35-32-59q-32-24-114-55q-83-32-117-55q-34-23-50-51q-16-28-16-69q0-73 59-114q59-42 162-42q100 0 188 40l-33 77q-90-38-162-38q-60 0-91 19q-31 19-31 52q0 32 27 53q27 21 125 59q74 27 109 51q35 24 52 53q17 30 17 71ZM7272 1389m190 0l-97 0l0-590l97 0l0 590Zm-104-749q0-32 16-47q16-15 41-15q23 0 39 15q17 15 17 47q0 32-17 47q-17 15-39 15q-24 0-41-15q-16-15-16-47ZM7598 1389m474 0l-431 0l0-64l317-451l-298 0l0-75l404 0l0 73l-312 443l320 0l0 75ZM8159 1389m344 11q-133 0-208-80q-75-80-75-221q0-142 70-226q70-84 190-84q111 0 177 72q66 72 66 194l0 59l-404 0q3 100 51 153q48 52 137 52q47 0 90-8q42-8 99-32l0 85q-49 21-92 30q-43 9-102 9Zm-24-532q-69 0-110 45q-40 45-48 124l300 0q-1-83-38-126q-37-43-105-43Z"/></defs><linearGradient id="g" x2="0" y2="100%"><stop offset="0" stop-opacity=".1" stop-color="#eee"/><stop offset="1" stop-opacity=".1"/></linearGradient><mask id="m"><rect width="13910" height="2000" fill="#fff" rx="300"/></mask><g mask="url(#m)"><path d="M0 0h9371v2000H0z" fill="#555"/><path d="M9371 0h4539v2000H9371z" fill="#08C"/><path d="M0 0h13910v2000H0z" fill="url(#g)"/></g><use href="#l" fill="#000" opacity=".25" transform="translate(100,100)"/><use href="#l" fill="#fff"/><use href="#s" fill="#000" opacity=".25" transform="translate(100,100)"/><use href="#s" fill="#fff"/></svg>
