<svg width="120" height="20" viewBox="0 0 12071 2000" xmlns="http://www.w3.org/2000/svg"><defs><path id="s" d="M4744 1389m302 11q-115 0-178-79q-63-79-63-225q0-144 64-226q64-81 179-81q119 0 183 87l7 0q-2-11-4-43q-3-32-3-44l0-235l97 0l0 836l-78 0l-15-79l-4 0q-62 90-184 90Zm16-80q88 0 129-48q41-48 41-158l0-18q0-123-41-175q-41-52-129-52q-75 0-115 59q-41 59-41 169q0 110 41 166q41 56 117 56ZM5421 1389m344 11q-133 0-208-80q-75-80-75-221q0-142 70-226q70-84 190-84q111 0 177 72q66 72 66 194l0 59l-404 0q3 100 51 153q48 52 137 52q47 0 90-8q42-8 99-32l0 85q-49 21-92 30q-43 9-102 9Zm-24-532q-69 0-110 45q-40 45-48 124l300 0q-1-83-38-126q-37-43-105-43ZM6041 1389m223 0l-223-590l104 0l125 348q37 105 47 156l4 0q2-7 4-16q2-9 6-19q3-10 40-121l126-348l103 0l-224 590l-111 0ZM6600 1389m344 11q-133 0-208-80q-75-80-75-221q0-142 70-226q70-84 190-84q111 0 177 72q66 72 66 194l0 59l-404 0q3 100 51 153q48 52 137 52q47 0 90-8q42-8 99-32l0 85q-49 21-92 30q-43 9-102 9Zm-24-532q-69 0-110 45q-40 45-48 124l300 0q-1-83-38-126q-37-43-105-43ZM7220 1389m190 0l-97 0l0-836l97 0l0 836ZM7504 1389m606-296q0 144-73 226q-73 81-202 81q-80 0-142-37q-62-37-95-107q-33-70-33-162q0-144 72-224q72-80 202-80q125 0 198 82q73 82 73 223Zm-445 0q0 111 44 169q44 58 129 58q84 0 128-58q44-58 44-169q0-111-44-167q-44-56-130-56q-171 0-171 223ZM8169 1389m373 11q-119 0-183-85l-6 0l2 22q4 42 4 75l0 242l-97 0l0-854l79 0l13 81l4 0q34-48 79-70q45-21 104-21q115 0 179 80q64 80 64 225q0 144-64 226q-64 81-179 81Zm-16-530q-88 0-126 49q-39 49-40 155l0 19q0 120 40 173q40 53 129 53q74 0 116-60q42-60 42-168q0-108-42-165q-42-57-118-57ZM8846 1389m844 0l0-380q0-140-120-140q-82 0-121 48q-39 48-39 146l0 325l-96 0l0-380q0-70-29-105q-29-35-92-35q-82 0-120 50q-38 50-38 164l0 306l-97 0l0-590l78 0l15 81l5 0q25-43 71-67q46-24 103-24q139 0 180 99l5 0q28-47 78-73q49-26 111-26q100 0 150 52q50 52 50 165l0 384l-96 0ZM9874 1389m344 11q-133 0-208-80q-75-80-75-221q0-142 70-226q70-84 190-84q111 0 177 72q66 72 66 194l0 59l-404 0q3 100 51 153q48 52 137 52q47 0 90-8q42-8 99-32l0 85q-49 21-92 30q-43 9-102 9Zm-24-532q-69 0-110 45q-40 45-48 124l300 0q-1-83-38-126q-37-43-105-43ZM10495 1389m495 0l0-377q0-72-32-107q-32-35-100-35q-91 0-132 50q-41 50-41 164l0 306l-97 0l0-590l78 0l15 81l5 0q27-44 77-67q49-24 109-24q108 0 161 53q53 53 53 164l0 384l-96 0ZM11175 1389m291-68q19 0 44-4q25-4 38-9l0 74q-13 6-42 12q-28 6-57 6q-173 0-173-182l0-343l-83 0l0-46l84-39l39-126l57 0l0 135l170 0l0 75l-170 0l0 341q0 51 24 78q24 27 68 27Z"/><path id="l" d="M500 1389m477-163q0 83-62 128q-62 45-173 45q-117 0-185-37l0-88q97 47 187 47q73 0 106-24q33-24 33-63q0-35-32-59q-32-24-114-55q-83-32-117-55q-34-23-50-51q-16-28-16-69q0-73 59-114q59-42 162-42q100 0 188 40l-33 77q-90-38-162-38q-60 0-91 19q-31 19-31 52q0 32 27 53q27 21 125 59q74 27 109 51q35 24 52 53q17 30 17 71ZM1027 1389m291-68q19 0 44-4q25-4 38-9l0 74q-13 6-42 12q-28 6-57 6q-173 0-173-182l0-343l-83 0l0-46l84-39l39-126l57 0l0 135l170 0l0 75l-170 0l0 341q0 51 24 78q24 27 68 27ZM1424 1389m458 0l-19-84l-4 0q-44 55-88 75q-44 20-110 20q-87 0-136-46q-49-46-49-129q0-179 283-188l100-4l0-35q0-67-29-99q-29-32-93-32q-47 0-88 14q-42 14-78 31l-30-73q45-24 97-37q53-13 104-13q107 0 159 47q52 47 52 150l0 402l-70 0Zm-199-67q81 0 128-44q46-44 46-124l0-53l-87 4q-102 4-148 32q-46 28-46 90q0 46 28 71q28 25 79 25ZM2041 1389m291-68q19 0 44-4q25-4 38-9l0 74q-13 6-42 12q-28 6-57 6q-173 0-173-182l0-343l-83 0l0-46l84-39l39-126l57 0l0 135l170 0l0 75l-170 0l0 341q0 51 24 78q24 27 68 27ZM2438 1389m185-590l0 380q0 71 32 106q32 35 99 35q91 0 132-50q41-50 41-163l0-307l97 0l0 590l-79 0l-14-78l-5 0q-26 42-75 66q-48 23-112 23q-106 0-160-51q-54-51-54-163l0-386l98 0ZM3118 1389m477-163q0 83-62 128q-62 45-173 45q-117 0-185-37l0-88q97 47 187 47q73 0 106-24q33-24 33-63q0-35-32-59q-32-24-114-55q-83-32-117-55q-34-23-50-51q-16-28-16-69q0-73 59-114q59-42 162-42q100 0 188 40l-33 77q-90-38-162-38q-60 0-91 19q-31 19-31 52q0 32 27 53q27 21 125 59q74 27 109 51q35 24 52 53q17 30 17 71Z"/></defs><linearGradient id="g" x2="0" y2="100%"><stop offset="0" stop-opacity=".1" stop-color="#eee"/><stop offset="1" stop-opacity=".1"/></linearGradient><mask id="m"><rect width="12071" height="2000" fill="#fff" rx="300"/></mask><g mask="url(#m)"><path d="M0 0h4194v2000H0z" fill="#555"/><path d="M4194 0h7877v2000H4194z" fill="#F73"/><path d="M0 0h12071v2000H0z" fill="url(#g)"/></g><use href="#l" fill="#000" opacity=".25" transform="translate(100,100)"/><use href="#l" fill="#fff"/><use href="#s" fill="#000" opacity=".25" transform="translate(100,100)"/><use href="#s" fill="#fff"/></svg>
